<svg width="170" height="90" viewBox="0 0 170 90" fill="none" xmlns="http://www.w3.org/2000/svg">
<g clip-path="url(#clip0_2081_44022)">
<path d="M116.756 26.1191L108.162 29.5287V34.2858L113.988 31.9744C115.656 31.3125 116.756 29.6591 116.756 27.8153V26.1191Z" fill="#3240C2"/>
<path d="M108.432 59.3828H115.285C115.443 59.3828 115.572 59.2504 115.572 59.0866V35.3323C115.572 35.1685 115.443 35.0361 115.285 35.0361H108.432C108.273 35.0361 108.145 35.1685 108.145 35.3323V59.0866C108.144 59.2495 108.273 59.3828 108.432 59.3828Z" fill="#3240C2"/>
<path d="M99.1776 49.6153C99.1776 48.9905 99.1794 44.8876 99.1683 41.3438H104.413C104.572 41.3438 104.7 41.2114 104.7 41.0476V35.3324C104.7 35.1686 104.572 35.0362 104.413 35.0362H99.1785C99.1785 35.0362 99.1794 31.2038 99.1776 30.5238C99.1766 30.361 99.0483 30.2314 98.8904 30.2314H91.9258C91.767 30.2314 91.6378 30.361 91.6387 30.5257C91.6433 32.3534 91.6387 42.4143 91.6387 50.5057C91.6387 59.3219 99.4674 59.38 102.231 59.381H104.494C104.653 59.381 104.781 59.2486 104.781 59.0848V53.7895C104.781 53.6276 104.656 53.4972 104.499 53.4943C102.047 53.4505 99.1776 52.7991 99.1776 49.6153Z" fill="#3240C2"/>
<path d="M33.738 56.138C33.738 57.6961 32.9219 59.9647 28.3788 60.0085C28.2209 60.0104 28.0898 60.1399 28.0898 60.3028V65.5961C28.0898 65.7599 28.2182 65.8923 28.377 65.8923H30.6406C33.4038 65.8904 41.2325 65.7875 41.2325 56.9723C41.2325 48.8237 41.2279 37.3047 41.2325 35.3294C41.2325 35.1656 41.1042 35.0352 40.9454 35.0352H34.0288C33.8709 35.0352 33.7417 35.1666 33.7417 35.3294C33.7352 37.7733 33.738 54.6571 33.738 56.138Z" fill="#3240C2"/>
<path d="M58.2483 50.5094C58.2584 52.5418 57.0721 53.7018 54.9995 53.7018C52.9269 53.7018 51.7572 52.5409 51.7572 50.5047C51.7572 49.0466 51.7665 37.339 51.7572 35.3285C51.7563 35.1656 51.628 35.0352 51.4701 35.0352H44.6172C44.4584 35.0352 44.3292 35.1656 44.3301 35.3304C44.3356 36.7856 44.3301 44.2237 44.3301 51.3133C44.3301 60.2523 52.3804 60.2837 55.0032 60.2837C57.626 60.2837 65.6764 60.2837 65.6764 51.3133C65.6764 44.2237 65.6764 35.3323 65.6764 35.3323C65.6764 35.1685 65.548 35.0361 65.3893 35.0361H58.5363C58.3775 35.0361 58.2492 35.1685 58.2492 35.3323V50.5094H58.2483Z" fill="#3240C2"/>
<path d="M126.991 43.913C126.981 41.8806 128.167 40.7206 130.239 40.7206C132.312 40.7206 133.482 41.8815 133.482 43.9177C133.482 45.3758 133.472 57.0834 133.482 59.0939C133.483 59.2568 133.611 59.3872 133.769 59.3872H140.622C140.781 59.3872 140.91 59.2568 140.909 59.092C140.903 57.6368 140.909 50.1987 140.909 43.1091C140.909 34.1701 132.859 34.1387 130.236 34.1387C127.614 34.1387 119.562 34.1387 119.562 43.1091C119.562 50.1987 119.562 59.0901 119.562 59.0901C119.562 59.2539 119.691 59.3863 119.85 59.3863H126.703C126.861 59.3863 126.99 59.2539 126.99 59.0901V43.913H126.991Z" fill="#3240C2"/>
<path d="M83.7006 45.2377C83.5178 45.1949 79.1621 44.3901 78.959 44.3511C77.0046 43.9796 75.7306 43.3406 75.7306 42.0482C75.7306 41.1891 76.3676 39.7644 78.9424 39.7644C81.7416 39.7644 82.0896 41.5044 82.1154 42.3387C82.121 42.4977 82.2475 42.6215 82.4016 42.6215H88.396C88.5566 42.6215 88.6887 42.4863 88.6831 42.3206C88.5917 39.4339 87.1238 34.1387 78.382 34.1387C71.7479 34.1387 68.4308 37.5539 68.4308 42.4044C68.4308 46.0939 70.7804 48.0596 73.9165 48.8396C76.1202 49.3872 82.0887 49.4482 82.0887 52.2434C82.0887 53.0987 81.4563 54.5234 78.8805 54.5234C75.9937 54.5234 75.3622 52.6796 75.2736 51.8768C75.257 51.7282 75.1351 51.6196 74.9902 51.6196H68.5305C68.3671 51.6196 68.2351 51.7577 68.2425 51.9263C68.3385 54.2691 69.9513 60.3606 78.7485 60.3606C85.7169 60.3606 89.1853 57.0834 89.1853 52.0987C89.1863 48.4082 86.8478 45.9853 83.7006 45.2377Z" fill="#3240C2"/>
<path d="M119.269 19.0684L108.162 23.4112V28.1684L116.48 24.916C118.159 24.2598 119.268 22.6007 119.268 20.7493V19.0684H119.269Z" fill="#3240C2"/>
<path d="M61.3356 68.5685H61.86V70.9324H60.4632V69.9666H58.3675V70.9324H56.9707V68.5685H57.4877C57.6834 68.2038 57.7804 67.6943 57.7804 67.0409V64.9219H61.3356V68.5685ZM58.9325 68.5685H59.9388V66.2476H59.1772V67.0543C59.1772 67.68 59.0959 68.1838 58.9325 68.5685Z" fill="#3240C2"/>
<path d="M66.9538 69.3209C66.4534 69.8276 65.8395 70.0809 65.1129 70.0809C64.3864 70.0809 63.7733 69.8276 63.272 69.3209C62.7707 68.8143 62.5215 68.1885 62.5215 67.4438C62.5215 66.699 62.7717 66.0733 63.272 65.5666C63.7724 65.06 64.3864 64.8066 65.1129 64.8066C65.8395 64.8066 66.4525 65.06 66.9538 65.5666C67.4551 66.0733 67.7053 66.699 67.7053 67.4438C67.7053 68.1885 67.4551 68.8143 66.9538 69.3209ZM64.258 68.32C64.4842 68.5533 64.7686 68.6695 65.1138 68.6695C65.4591 68.6695 65.7435 68.5533 65.9696 68.32C66.1958 68.0866 66.3085 67.7952 66.3085 67.4447C66.3085 67.0943 66.1949 66.8019 65.9696 66.5695C65.7435 66.3362 65.4591 66.22 65.1138 66.22C64.7686 66.22 64.4842 66.3362 64.258 66.5695C64.0318 66.8028 63.9192 67.0943 63.9192 67.4447C63.9192 67.7952 64.0318 68.0866 64.258 68.32Z" fill="#3240C2"/>
<path d="M71.1013 70.0819C70.3655 70.0819 69.7562 69.8295 69.2715 69.3257C68.7868 68.8209 68.5449 68.1943 68.5449 67.4448C68.5449 66.6952 68.7868 66.0686 69.2715 65.5638C69.7562 65.059 70.3655 64.8076 71.1013 64.8076C71.5527 64.8076 71.97 64.9182 72.3513 65.1391C72.7335 65.3601 73.0317 65.6582 73.2459 66.0325L72.0309 66.7533C71.9515 66.5905 71.8288 66.46 71.6607 66.3638C71.4927 66.2676 71.3062 66.22 71.1013 66.22C70.7569 66.22 70.4772 66.3352 70.263 66.5657C70.0488 66.7962 69.9417 67.0895 69.9417 67.4448C69.9417 67.8 70.0488 68.0934 70.263 68.3239C70.4772 68.5544 70.756 68.6696 71.1013 68.6696C71.3108 68.6696 71.4982 68.622 71.6635 68.5258C71.8288 68.4296 71.9506 68.2981 72.03 68.1295L73.2449 68.8505C73.0308 69.2305 72.7326 69.5306 72.3504 69.7515C71.97 69.9715 71.5527 70.0819 71.1013 70.0819Z" fill="#3240C2"/>
<path d="M77.577 64.9219V66.32H76.424V69.9666H75.0272V66.32H73.875V64.9219H77.577Z" fill="#3240C2"/>
<path d="M81.2092 64.9219H82.6761L81.2647 68.3371C81.032 68.899 80.7255 69.3171 80.3461 69.5914C79.9666 69.8647 79.4717 69.9904 78.8615 69.9657V68.6257C79.2852 68.659 79.6065 68.5752 79.8262 68.3733L78.2051 64.9219H79.6721L80.5168 66.839L81.2092 64.9219Z" fill="#3240C2"/>
<path d="M87.3551 64.9219V69.9666H85.9583V66.32H84.9105V69.9666H83.5137V64.9219H87.3551Z" fill="#3240C2"/>
<path d="M91.1279 64.9219H92.5247V69.9666H91.1279V68.1076H89.9398V69.9666H88.543V64.9219H89.9398V66.7085H91.1279V64.9219Z" fill="#3240C2"/>
<path d="M96.5417 69.9666L96.3737 69.3181H94.9621L94.795 69.9666H93.293L94.8504 64.9219H96.4854L98.0438 69.9666H96.5417ZM95.2631 68.1647H96.0737L95.6684 66.6152L95.2631 68.1647Z" fill="#3240C2"/>
<path d="M104.75 68.5685H105.274V70.9324H103.877V69.9666H101.782V70.9324H100.385V68.5685H100.902C101.097 68.2038 101.194 67.6943 101.194 67.0409V64.9219H104.75V68.5685ZM102.347 68.5685H103.353V66.2476H102.591V67.0543C102.591 67.68 102.51 68.1838 102.347 68.5685Z" fill="#3240C2"/>
<path d="M110.368 69.3209C109.867 69.8276 109.254 70.0809 108.527 70.0809C107.8 70.0809 107.187 69.8276 106.686 69.3209C106.185 68.8143 105.936 68.1885 105.936 67.4438C105.936 66.699 106.186 66.0733 106.686 65.5666C107.186 65.06 107.8 64.8066 108.527 64.8066C109.254 64.8066 109.867 65.06 110.368 65.5666C110.869 66.0733 111.119 66.699 111.119 67.4438C111.119 68.1885 110.869 68.8143 110.368 69.3209ZM107.672 68.32C107.898 68.5533 108.183 68.6695 108.528 68.6695C108.873 68.6695 109.158 68.5533 109.384 68.32C109.61 68.0866 109.723 67.7952 109.723 67.4447C109.723 67.0943 109.609 66.8019 109.384 66.5695C109.158 66.3362 108.873 66.22 108.528 66.22C108.183 66.22 107.898 66.3362 107.672 66.5695C107.446 66.8028 107.333 67.0943 107.333 67.4447C107.333 67.7952 107.446 68.0866 107.672 68.32Z" fill="#3240C2"/>
<path d="M114.515 70.0819C113.78 70.0819 113.17 69.8295 112.686 69.3257C112.201 68.8209 111.959 68.1943 111.959 67.4448C111.959 66.6952 112.201 66.0686 112.686 65.5638C113.17 65.059 113.78 64.8076 114.515 64.8076C114.967 64.8076 115.384 64.9182 115.765 65.1391C116.148 65.3601 116.446 65.6582 116.66 66.0325L115.445 66.7533C115.366 66.5905 115.243 66.46 115.075 66.3638C114.907 66.2676 114.72 66.22 114.515 66.22C114.171 66.22 113.891 66.3352 113.677 66.5657C113.463 66.7962 113.356 67.0895 113.356 67.4448C113.356 67.8 113.463 68.0934 113.677 68.3239C113.891 68.5544 114.17 68.6696 114.515 68.6696C114.725 68.6696 114.912 68.622 115.078 68.5258C115.243 68.4296 115.365 68.2981 115.444 68.1295L116.659 68.8505C116.445 69.2305 116.147 69.5306 115.764 69.7515C115.384 69.9715 114.967 70.0819 114.515 70.0819Z" fill="#3240C2"/>
<path d="M120.99 64.9219V66.32H119.837V69.9666H118.44V66.32H117.287V64.9219H120.99Z" fill="#3240C2"/>
<path d="M124.378 69.9666L124.21 69.3181H122.798L122.631 69.9666H121.129L122.686 64.9219H124.321L125.88 69.9666H124.378ZM123.1 68.1647H123.911L123.505 66.6152L123.1 68.1647Z" fill="#3240C2"/>
<path d="M129.792 67.3647C130.211 67.6095 130.421 67.9818 130.421 68.4818C130.421 68.9428 130.276 69.3057 129.984 69.5695C129.693 69.8342 129.27 69.9657 128.716 69.9657H126.648V64.9209H128.591C129.14 64.9209 129.559 65.0438 129.848 65.2885C130.137 65.5333 130.281 65.8838 130.281 66.3409C130.28 66.779 130.118 67.1199 129.792 67.3647ZM128.507 66.1619H128.045V66.839L128.583 66.8314C128.784 66.8028 128.884 66.6923 128.884 66.4999C128.884 66.3895 128.847 66.3057 128.772 66.2476C128.698 66.1904 128.609 66.1619 128.507 66.1619ZM128.632 68.7266C128.744 68.7266 128.836 68.6933 128.911 68.6257C128.986 68.558 129.023 68.4723 129.023 68.3666C129.023 68.1647 128.919 68.0476 128.709 68.0133L128.045 68.0057V68.7266H128.632Z" fill="#3240C2"/>
<path d="M135.526 69.9666H133.976L132.76 67.8047V69.9666H131.363V64.9219H132.76V66.94L133.906 64.9219H135.457L134.004 67.3723L135.526 69.9666Z" fill="#3240C2"/>
<path d="M139.333 69.9666L139.165 69.3181H137.753L137.586 69.9666H136.084L137.641 64.9219H139.276L140.835 69.9666H139.333ZM138.054 68.1647H138.865L138.459 66.6152L138.054 68.1647Z" fill="#3240C2"/>
</g>
<defs>
<clipPath id="clip0_2081_44022">
<rect width="113" height="52" fill="white" transform="translate(28 19)"/>
</clipPath>
</defs>
</svg>
