<svg width="18" height="22" viewBox="0 0 18 22" fill="none" xmlns="http://www.w3.org/2000/svg">
<rect x="0.5" y="9.09277" width="5" height="12" rx="0.5" fill="#3240C2" stroke="#202B94"/>
<path d="M8.5 5.09595C7.46879 7.15385 5.44122 9.16904 5.06191 9.53654C5.02234 9.57487 5 9.62718 5 9.68228V19.9602C5 20.0406 5.04793 20.113 5.12231 20.1434C5.54134 20.3149 6.95102 20.8751 8 21.0928C9.5 21.4041 12.1165 21.5637 14 21.0928C15 20.8428 15.75 18.0803 16.5 15.5928C16.8015 14.5928 17.625 10.5928 17 10.0928C15.9782 9.27538 13.2861 9.12612 12.3371 9.09887C12.185 9.0945 12.0871 8.92904 12.1547 8.7928C12.66 7.7748 14.1643 4.41431 13 2.59278C12.3266 1.53931 11.3259 0.590098 10.5 0.592779C9.5 0.596025 9.1662 3.76645 8.5 5.09595Z" fill="#3240C2" stroke="#202B94"/>
</svg>
