<svg width="52" height="40" viewBox="0 0 52 40" fill="none" xmlns="http://www.w3.org/2000/svg">
<g clip-path="url(#clip0_2141_26614)">
<path d="M9.42682 39.9122V37.2576C9.42682 36.2421 8.80232 35.5772 7.73026 35.5772C7.19423 35.5772 6.61136 35.7524 6.21064 36.3297C5.89839 35.8452 5.45084 35.5772 4.7795 35.5772C4.33194 35.5772 3.88438 35.7112 3.5305 36.1957V35.6648H2.59375V39.9122H3.5305V37.5668C3.5305 36.8143 3.93122 36.4586 4.55572 36.4586C5.18022 36.4586 5.49247 36.8555 5.49247 37.5668V39.9122H6.42922V37.5668C6.42922 36.8143 6.87678 36.4586 7.45444 36.4586C8.07894 36.4586 8.39119 36.8555 8.39119 37.5668V39.9122H9.42682ZM23.3219 35.6648H21.8023V34.3813H20.8656V35.6648H20.0173V36.505H20.8656V38.4534C20.8656 39.4277 21.2663 39.9998 22.3383 39.9998C22.7391 39.9998 23.1866 39.8658 23.4989 39.6906L23.2283 38.8916C22.9576 39.0668 22.6454 39.1132 22.4216 39.1132C21.9741 39.1132 21.7971 38.8452 21.7971 38.4071V36.505H23.3167V35.6648H23.3219ZM31.2739 35.572C30.7379 35.572 30.3788 35.84 30.155 36.1906V35.6596H29.2183V39.9071H30.155V37.5153C30.155 36.8091 30.4672 36.4071 31.0501 36.4071C31.2271 36.4071 31.4508 36.4534 31.633 36.4947L31.9036 35.6081C31.7162 35.572 31.4508 35.572 31.2739 35.572ZM19.2575 36.0153C18.8099 35.706 18.1854 35.572 17.5141 35.572C16.442 35.572 15.7291 36.1029 15.7291 36.9431C15.7291 37.6493 16.2651 38.0514 17.2018 38.1803L17.6494 38.2266C18.1386 38.3143 18.4092 38.4483 18.4092 38.6699C18.4092 38.9792 18.0501 39.2009 17.4256 39.2009C16.8011 39.2009 16.3067 38.9792 15.9945 38.7576L15.5469 39.4638C16.0361 39.8194 16.7074 39.9947 17.3788 39.9947C18.6278 39.9947 19.346 39.4174 19.346 38.6236C19.346 37.871 18.7631 37.4741 17.8732 37.34L17.4256 37.2937C17.0249 37.2473 16.7126 37.1596 16.7126 36.8967C16.7126 36.5875 17.0249 36.4122 17.5193 36.4122C18.0553 36.4122 18.5913 36.6339 18.862 36.7679L19.2575 36.0153ZM44.1802 35.572C43.6442 35.572 43.2851 35.84 43.0613 36.1906V35.6596H42.1246V39.9071H43.0613V37.5153C43.0613 36.8091 43.3736 36.4071 43.9564 36.4071C44.1334 36.4071 44.3572 36.4534 44.5393 36.4947L44.8099 35.6184C44.6278 35.572 44.3624 35.572 44.1802 35.572ZM32.2106 37.7885C32.2106 39.072 33.1058 39.9998 34.4901 39.9998C35.1146 39.9998 35.5621 39.8658 36.0097 39.5153L35.5621 38.7627C35.203 39.0308 34.8492 39.1596 34.4432 39.1596C33.6834 39.1596 33.1474 38.6287 33.1474 37.7885C33.1474 36.9895 33.6834 36.4586 34.4432 36.4174C34.844 36.4174 35.203 36.5514 35.5621 36.8143L36.0097 36.0617C35.5621 35.706 35.1146 35.5772 34.4901 35.5772C33.1058 35.572 32.2106 36.505 32.2106 37.7885ZM40.8756 37.7885V35.6648H39.9388V36.1957C39.6266 35.7988 39.179 35.5772 38.5962 35.5772C37.3888 35.5772 36.452 36.505 36.452 37.7885C36.452 39.072 37.3888 39.9998 38.5962 39.9998C39.2207 39.9998 39.6682 39.7782 39.9388 39.3813V39.9122H40.8756V37.7885ZM37.4356 37.7885C37.4356 37.0359 37.9248 36.4174 38.7315 36.4174C39.4913 36.4174 40.0273 36.9947 40.0273 37.7885C40.0273 38.5411 39.4913 39.1596 38.7315 39.1596C37.93 39.1132 37.4356 38.5359 37.4356 37.7885ZM26.2259 35.572C24.9769 35.572 24.0817 36.4586 24.0817 37.7833C24.0817 39.1132 24.9769 39.9947 26.2727 39.9947C26.8972 39.9947 27.5217 39.8194 28.0161 39.4174L27.5685 38.7524C27.2094 39.0205 26.7619 39.1957 26.3195 39.1957C25.7367 39.1957 25.159 38.9277 25.0237 38.1803H28.193C28.193 38.0462 28.193 37.9586 28.193 37.8246C28.2347 36.4586 27.428 35.572 26.2259 35.572ZM26.2259 36.371C26.8087 36.371 27.2094 36.7266 27.2979 37.3864H25.0653C25.1538 36.8143 25.5545 36.371 26.2259 36.371ZM49.4989 37.7885V33.9844H48.5621V36.1957C48.2499 35.7988 47.8023 35.5772 47.2195 35.5772C46.0121 35.5772 45.0753 36.505 45.0753 37.7885C45.0753 39.072 46.0121 39.9998 47.2195 39.9998C47.844 39.9998 48.2915 39.7782 48.5621 39.3813V39.9122H49.4989V37.7885ZM46.0589 37.7885C46.0589 37.0359 46.5481 36.4174 47.3548 36.4174C48.1146 36.4174 48.6506 36.9947 48.6506 37.7885C48.6506 38.5411 48.1146 39.1596 47.3548 39.1596C46.5481 39.1132 46.0589 38.5359 46.0589 37.7885ZM14.6986 37.7885V35.6648H13.7619V36.1957C13.4496 35.7988 13.0021 35.5772 12.4192 35.5772C11.2118 35.5772 10.2751 36.505 10.2751 37.7885C10.2751 39.072 11.2118 39.9998 12.4192 39.9998C13.0437 39.9998 13.4913 39.7782 13.7619 39.3813V39.9122H14.6986V37.7885ZM11.217 37.7885C11.217 37.0359 11.7062 36.4174 12.5129 36.4174C13.2727 36.4174 13.8087 36.9947 13.8087 37.7885C13.8087 38.5411 13.2727 39.1596 12.5129 39.1596C11.7062 39.1132 11.217 38.5359 11.217 37.7885Z" fill="black"/>
<path d="M33.0174 3.40723H18.9453V28.4485H33.0174V3.40723Z" fill="#FF5A00"/>
<path d="M19.8799 15.9278C19.8799 10.8402 22.2946 6.32474 26 3.40722C23.273 1.28351 19.8331 0 16.0809 0C7.19215 0 0 7.12371 0 15.9278C0 24.732 7.19215 31.8557 16.0809 31.8557C19.8331 31.8557 23.273 30.5722 26 28.4485C22.2894 25.5722 19.8799 21.0155 19.8799 15.9278Z" fill="#EB001B"/>
<path d="M52 15.9278C52 24.732 44.8078 31.8557 35.9191 31.8557C32.1669 31.8557 28.727 30.5722 26 28.4485C29.7522 25.5258 32.1201 21.0155 32.1201 15.9278C32.1201 10.8402 29.7054 6.32474 26 3.40722C28.7218 1.28351 32.1617 0 35.9139 0C44.8078 0 52 7.1701 52 15.9278Z" fill="#F79E1B"/>
</g>
<defs>
<clipPath id="clip0_2141_26614">
<rect width="52" height="40" fill="white"/>
</clipPath>
</defs>
</svg>
