<svg width="1272" height="300" viewBox="0 0 1272 300" fill="none" xmlns="http://www.w3.org/2000/svg">
<path d="M164.979 120.229V174.281H46.8643V120.229H164.979ZM69.2861 4.51562V296H0.819336V4.51562H69.2861ZM211.225 4.51562V296H142.758V4.51562H211.225ZM450.17 128.437V172.479C450.17 193.433 447.567 211.851 442.362 227.733C437.157 243.616 429.75 256.962 420.14 267.772C410.531 278.45 399.12 286.524 385.907 291.996C372.828 297.335 358.28 300.004 342.264 300.004C326.115 300.004 311.434 297.335 298.221 291.996C285.009 286.524 273.597 278.45 263.988 267.772C254.379 256.962 246.971 243.616 241.766 227.733C236.561 211.851 233.959 193.433 233.959 172.479V128.437C233.959 107.483 236.561 88.998 241.766 72.9824C246.971 56.9668 254.312 43.6204 263.788 32.9434C273.397 22.2663 284.808 14.1917 298.021 8.71973C311.234 3.24772 325.915 0.511719 342.064 0.511719C358.08 0.511719 372.694 3.24772 385.907 8.71973C399.253 14.1917 410.665 22.2663 420.14 32.9434C429.616 43.6204 436.957 56.9668 442.162 72.9824C447.5 88.998 450.17 107.483 450.17 128.437ZM380.702 172.479V128.036C380.702 114.957 379.901 103.812 378.3 94.6035C376.698 85.3945 374.296 77.9206 371.093 72.1816C367.889 66.4427 363.886 62.2386 359.081 59.5693C354.276 56.9001 348.604 55.5654 342.064 55.5654C335.258 55.5654 329.452 56.9001 324.647 59.5693C319.843 62.2386 315.839 66.4427 312.636 72.1816C309.566 77.9206 307.297 85.3945 305.829 94.6035C304.361 103.812 303.627 114.957 303.627 128.036V172.479C303.627 185.425 304.361 196.503 305.829 205.712C307.297 214.787 309.566 222.261 312.636 228.134C315.839 234.006 319.909 238.344 324.847 241.146C329.786 243.816 335.591 245.15 342.264 245.15C348.671 245.15 354.276 243.816 359.081 241.146C364.019 238.344 368.023 234.006 371.093 228.134C374.296 222.261 376.698 214.787 378.3 205.712C379.901 196.503 380.702 185.425 380.702 172.479ZM640.467 241.947V296H517.948V241.947H640.467ZM541.971 4.51562V296H473.504V4.51562H541.971ZM739.676 296H686.224L686.624 241.947H739.676C749.686 241.947 757.827 239.745 764.1 235.341C770.506 230.937 775.244 223.663 778.314 213.52C781.384 203.243 782.918 189.563 782.918 172.479V127.836C782.918 115.023 782.051 104.213 780.316 95.4043C778.714 86.5957 776.178 79.5221 772.708 74.1836C769.238 68.8451 764.634 64.9746 758.895 62.5723C753.156 60.0365 746.349 58.7686 738.475 58.7686H685.223V4.51562H738.475C755.558 4.51562 771.04 7.31836 784.92 12.9238C798.934 18.3958 811.012 26.5371 821.156 37.3477C831.299 48.0247 839.106 60.9707 844.578 76.1855C850.05 91.4004 852.786 108.751 852.786 128.236V172.479C852.786 191.832 850.05 209.182 844.578 224.53C839.106 239.745 831.299 252.691 821.156 263.368C811.146 274.045 799.201 282.187 785.321 287.792C771.574 293.264 756.359 296 739.676 296ZM726.263 4.51562V296H657.796V4.51562H726.263ZM1047.89 241.947V296H920.364V241.947H1047.89ZM944.188 4.51562V296H875.721V4.51562H944.188ZM1031.27 120.229V172.479H920.364V120.229H1031.27ZM1048.49 4.51562V58.7686H920.364V4.51562H1048.49ZM1126.48 4.51562L1159.31 101.41L1191.74 4.51562H1269.62L1204.55 149.057L1271.22 296H1192.54L1159.31 197.304L1125.88 296H1046.8L1113.87 149.057L1048.4 4.51562H1126.48Z" fill="#505376"/>
</svg>
