<svg width="94" height="17" viewBox="0 0 94 17" fill="none" xmlns="http://www.w3.org/2000/svg">
<path d="M0.275 16.5V0.399999H4.3V6.775H10.6V0.399999H14.625V16.5H10.6V10.125H4.3V16.5H0.275ZM24.6945 16.75C22.0779 16.75 20.0862 16.0833 18.7195 14.75C17.3529 13.4167 16.6695 11.3417 16.6695 8.525C16.6695 5.54167 17.3529 3.4 18.7195 2.1C20.0862 0.799999 22.0779 0.149999 24.6945 0.149999C27.3112 0.149999 29.3029 0.799999 30.6695 2.1C32.0362 3.4 32.7195 5.54167 32.7195 8.525C32.7195 11.3417 32.0362 13.4167 30.6695 14.75C29.3029 16.0833 27.3112 16.75 24.6945 16.75ZM24.6945 13.325C26.0445 13.325 27.0279 12.9417 27.6445 12.175C28.2779 11.3917 28.5945 10.175 28.5945 8.525C28.5945 6.725 28.2779 5.45833 27.6445 4.725C27.0279 3.975 26.0445 3.6 24.6945 3.6C23.3279 3.6 22.3279 3.975 21.6945 4.725C21.0779 5.45833 20.7695 6.725 20.7695 8.525C20.7695 10.175 21.0779 11.3917 21.6945 12.175C22.3279 12.9417 23.3279 13.325 24.6945 13.325ZM34.7721 16.5V0.399999H38.7971V13.4H46.3971V16.5H34.7721ZM47.9557 16.5V0.399999H54.9307C56.564 0.399999 57.939 0.674999 59.0557 1.225C60.1723 1.75833 61.0223 2.625 61.6057 3.825C62.189 5.00833 62.4807 6.58333 62.4807 8.55C62.4807 11.3167 61.839 13.3333 60.5557 14.6C59.289 15.8667 57.414 16.5 54.9307 16.5H47.9557ZM51.9807 13.4H54.3807C55.2473 13.4 55.9723 13.275 56.5557 13.025C57.1557 12.7583 57.6057 12.275 57.9057 11.575C58.2223 10.875 58.3807 9.86667 58.3807 8.55C58.3807 7.21667 58.239 6.19167 57.9557 5.475C57.689 4.74167 57.2557 4.23333 56.6557 3.95C56.0723 3.65 55.314 3.5 54.3807 3.5H51.9807V13.4ZM64.5328 16.5V0.399999H76.4078V3.5H68.5578V6.875H75.4828V10.025H68.5578V13.4H76.4078V16.5H64.5328ZM77.192 16.5L83.067 8.4L77.367 0.399999H82.167L85.492 5.2L88.842 0.399999H93.642L87.942 8.4L93.817 16.5H88.967L85.492 11.625L82.042 16.5H77.192Z" fill="white"/>
</svg>
