<svg width="94" height="18" viewBox="0 0 94 18" fill="none" xmlns="http://www.w3.org/2000/svg">
<path d="M0.275 17V0.899999H4.3V7.275H10.6V0.899999H14.625V17H10.6V10.625H4.3V17H0.275ZM24.6945 17.25C22.0779 17.25 20.0862 16.5833 18.7195 15.25C17.3529 13.9167 16.6695 11.8417 16.6695 9.025C16.6695 6.04167 17.3529 3.9 18.7195 2.6C20.0862 1.3 22.0779 0.649999 24.6945 0.649999C27.3112 0.649999 29.3029 1.3 30.6695 2.6C32.0362 3.9 32.7195 6.04167 32.7195 9.025C32.7195 11.8417 32.0362 13.9167 30.6695 15.25C29.3029 16.5833 27.3112 17.25 24.6945 17.25ZM24.6945 13.825C26.0445 13.825 27.0279 13.4417 27.6445 12.675C28.2779 11.8917 28.5945 10.675 28.5945 9.025C28.5945 7.225 28.2779 5.95833 27.6445 5.225C27.0279 4.475 26.0445 4.1 24.6945 4.1C23.3279 4.1 22.3279 4.475 21.6945 5.225C21.0779 5.95833 20.7695 7.225 20.7695 9.025C20.7695 10.675 21.0779 11.8917 21.6945 12.675C22.3279 13.4417 23.3279 13.825 24.6945 13.825ZM34.7721 17V0.899999H38.7971V13.9H46.3971V17H34.7721ZM47.9557 17V0.899999H54.9307C56.564 0.899999 57.939 1.175 59.0557 1.725C60.1723 2.25833 61.0223 3.125 61.6057 4.325C62.189 5.50833 62.4807 7.08333 62.4807 9.05C62.4807 11.8167 61.839 13.8333 60.5557 15.1C59.289 16.3667 57.414 17 54.9307 17H47.9557ZM51.9807 13.9H54.3807C55.2473 13.9 55.9723 13.775 56.5557 13.525C57.1557 13.2583 57.6057 12.775 57.9057 12.075C58.2223 11.375 58.3807 10.3667 58.3807 9.05C58.3807 7.71667 58.239 6.69167 57.9557 5.975C57.689 5.24167 57.2557 4.73333 56.6557 4.45C56.0723 4.15 55.314 4 54.3807 4H51.9807V13.9ZM64.5328 17V0.899999H76.4078V4H68.5578V7.375H75.4828V10.525H68.5578V13.9H76.4078V17H64.5328ZM77.192 17L83.067 8.9L77.367 0.899999H82.167L85.492 5.7L88.842 0.899999H93.642L87.942 8.9L93.817 17H88.967L85.492 12.125L82.042 17H77.192Z" fill="black"/>
</svg>
